# xmcd
#
# Track frame offsets: 
#        150
#        23026
#        43183
#        65793
#        81301
#        106326
#        124542
#        138834
#        152624
#        182923
#        200244
#        231664
#        283534
#        308192
#
# Disc length: 4340 seconds
#
# Revision: 0
# Processed by: cddbd v1.5.2PL0 Copyright (c) Steve Scherf et al.
# Submitted via: ExactAudioCopy v0.95b4
#
DISCID=cd10f20e
DTITLE=Various Artist - Time Blues 40
DYEAR=2005
DGENRE=Blues
TTITLE0=B.B.King and Eric Clapton - The Thrill is Gone
TTITLE1=Bonnie Raitt - I Don't Want Anything to Change
TTITLE2=Roy Buchanan - Way Fairing Pilgrim
TTITLE3=Buddy Guy and Tracy Chapman - Ain't No Sunshine
TTITLE4=Billy Boy Arnold - Low Down Blues
TTITLE5=Santana and Los Lonely Boys - I Don't Wanna Lose Your Love
TTITLE6=Johnny Nicholas and The Texas All Stars - Reap What You Sow
TTITLE7=Shemekia Copeland - Poor, Poor Excuse
TTITLE8=Tom Principato - Tango'd Up in the Blues
TTITLE9=Hamilton Loomis - No No No
TTITLE10=Terry Evans - My Baby Joined the Army
TTITLE11=Robben Ford - Sunrise
TTITLE12=Howard Tate - All I Know is the Way I Feel
TTITLE13=Ruthie Foster - Woke Up This Morning
EXTD=
EXTT0=
EXTT1=
EXTT2=
EXTT3=
EXTT4=
EXTT5=
EXTT6=
EXTT7=
EXTT8=
EXTT9=
EXTT10=
EXTT11=
EXTT12=
EXTT13=
PLAYORDER=
